<?xml version="1.0" encoding="UTF-8" standalone="no"?>
<svg
   xmlns:dc="http://purl.org/dc/elements/1.1/"
   xmlns:cc="http://creativecommons.org/ns#"
   xmlns:rdf="http://www.w3.org/1999/02/22-rdf-syntax-ns#"
   xmlns:svg="http://www.w3.org/2000/svg"
   xmlns="http://www.w3.org/2000/svg"
   xmlns:sodipodi="http://sodipodi.sourceforge.net/DTD/sodipodi-0.dtd"
   xmlns:inkscape="http://www.inkscape.org/namespaces/inkscape"
   width="250mm"
   height="500mm"
   viewBox="0 0 250 500"
   version="1.1"
   id="svg8"
   inkscape:export-filename="/home/tonchi/Escritorio/Proyectos/Portafolio web/assets/background-contact.png"
   inkscape:export-xdpi="96"
   inkscape:export-ydpi="96"
   inkscape:version="1.0.2 (394de47547, 2021-03-26)"
   sodipodi:docname="background-contact.svg">
  <defs
     id="defs2" />
  <sodipodi:namedview
     id="base"
     pagecolor="#ffffff"
     bordercolor="#666666"
     borderopacity="1.0"
     inkscape:pageopacity="0.0"
     inkscape:pageshadow="2"
     inkscape:zoom="0.22627417"
     inkscape:cx="-316.81624"
     inkscape:cy="870.5459"
     inkscape:document-units="mm"
     inkscape:current-layer="layer1"
     inkscape:document-rotation="0"
     showgrid="true"
     inkscape:showpageshadow="false"
     showguides="true"
     inkscape:guide-bbox="true"
     inkscape:window-width="1366"
     inkscape:window-height="731"
     inkscape:window-x="1366"
     inkscape:window-y="0"
     inkscape:window-maximized="1">
    <inkscape:grid
       type="xygrid"
       id="grid10"
       originx="125"
       originy="250" />
    <sodipodi:guide
       position="125,250"
       orientation="1,0"
       id="guide96" />
  </sodipodi:namedview>
  <metadata
     id="metadata5">
    <rdf:RDF>
      <cc:Work
         rdf:about="">
        <dc:format>image/svg+xml</dc:format>
        <dc:type
           rdf:resource="http://purl.org/dc/dcmitype/StillImage" />
        <dc:title></dc:title>
      </cc:Work>
    </rdf:RDF>
  </metadata>
  <g
     inkscape:label="Capa 1"
     inkscape:groupmode="layer"
     id="layer1">
    <path
       style="fill:#191f25;fill-opacity:1;stroke:none;stroke-width:0.0451101px;stroke-linecap:butt;stroke-linejoin:miter;stroke-opacity:1"
       d="M -52.611123,28.12416 C -40.956303,10.45622 -15.177933,3.0245253 6.6621469,0.80277921 26.895197,-1.2554784 45.631316,14.626513 65.979773,14.493462 86.368129,14.360142 104.81997,-0.02142864 125.20881,2.3976339e-5 145.70395,0.02158545 164.21775,14.581995 184.7126,14.694313 204.9891,14.805432 223.60185,-1.3154612 243.7554,0.80277921 265.71101,3.1104273 291.41544,11.095144 303.02873,28.92691 c 62.32367,95.6954 0,337.48976 0,337.48976 H -52.611123 c 0,0 -63.051207,-242.71144 0,-338.29251 z"
       id="path46"
       sodipodi:nodetypes="aaaaaaacca" />
    <path
       style="fill:#191f25;fill-opacity:1;stroke:none;stroke-width:0.0451101px;stroke-linecap:butt;stroke-linejoin:miter;stroke-opacity:1"
       d="m -54.916667,197.08333 c 11.65482,-17.66794 37.43319,-25.09963 59.2732663,-27.32138 20.2330497,-2.05825 38.9691687,13.82374 59.3176257,13.69069 20.388356,-0.13332 38.840195,-14.5149 59.229035,-14.49344 20.49514,0.0216 39.00894,14.58197 59.50379,14.69429 20.2765,0.11112 38.88925,-16.00978 59.0428,-13.89154 21.95561,2.30765 47.66004,10.29237 59.27333,28.12413 62.32367,95.6954 0,337.48976 0,337.48976 H -54.916667 c 0,0 -63.051213,-242.71144 0,-338.29251 z"
       id="path46-3"
       sodipodi:nodetypes="aaaaaaacca" />
  </g>
</svg>
