<svg width="32" height="32" viewBox="0 0 32 32" fill="none" xmlns="http://www.w3.org/2000/svg">
<path d="M16 32C7.16344 32 0 24.8366 0 16C0 7.16344 7.16344 0 16 0C24.8366 0 32 7.16344 32 16C31.9903 24.8325 24.8325 31.9903 16 32ZM15.9744 28.8H16C23.0667 28.7929 28.7907 23.0604 28.7872 15.9936C28.7837 8.92686 23.0539 3.20001 15.9872 3.20001C8.92045 3.20001 3.19074 8.92686 3.1872 15.9936C3.18367 23.0604 8.90766 28.7929 15.9744 28.8ZM12.8 24L6.4 17.6L8.656 15.344L12.8 19.472L23.344 8.928L25.6 11.2L12.8 24Z" fill="#1E90FF"/>
</svg>
