<svg width="150" height="150" viewBox="0 0 150 150" fill="none" xmlns="http://www.w3.org/2000/svg">
<path d="M85.2488 27.2497C86.8608 25.5834 89.4746 25.5834 91.0875 27.2497L146.791 84.8375C148.403 86.5038 148.403 89.2063 146.791 90.8737L141.698 96.1381L80.1567 32.5162L85.2488 27.2497Z" fill="#222222"/>
<path d="M96.9618 62.8295L63.0429 27.78C61.4309 26.1137 58.8145 26.1137 57.2043 27.782L2.2088 84.663C0.596752 86.3304 0.596752 89.0329 2.21069 90.6991L33.2129 122.733C34.825 124.398 37.4349 124.4 39.0498 122.735L74.4361 86.2286L109.927 122.756C111.536 124.413 114.135 124.415 115.749 122.76L135.131 102.874L96.9618 62.8295ZM47.1859 87.0816C40.8005 87.0816 35.8313 81.7076 35.8313 75.3447C35.8313 68.979 40.8005 63.607 47.1859 63.607C53.5713 63.607 58.5407 68.98 58.5407 75.3447C58.5387 81.7094 53.5695 87.0816 47.1859 87.0816Z" fill="#222222"/>
<path d="M51.257 76.3596C51.2456 75.809 51.03 75.3156 50.6089 74.8804C50.2948 74.5547 49.9552 74.3646 49.5933 74.3094C49.2247 74.2494 48.873 74.2707 48.5373 74.3753C48.2063 74.4752 47.788 74.637 47.2816 74.8629C46.8174 75.0771 46.463 75.2293 46.2181 75.3176C45.9725 75.3941 45.7567 75.4242 45.5702 75.4087C45.3892 75.3864 45.2184 75.2923 45.0581 75.1275C44.8341 74.8958 44.7383 74.637 44.7702 74.35C44.8022 74.0633 44.8668 73.755 45.3995 73.2033L46.4592 72.108L45.7559 71.3811L44.9784 72.1847C44.9409 72.201 44.9118 72.1982 44.8903 72.1769L44.306 71.5399C44.2797 71.5128 44.2478 71.5012 44.2095 71.507C44.1719 71.5012 44.14 71.5128 44.1138 71.5399L43.4892 72.1847C43.4629 72.2128 43.4498 72.2477 43.4498 72.2923C43.4498 72.3252 43.4629 72.3553 43.4892 72.3834L44.0969 72.9785C44.1176 73.0008 44.1204 73.0309 44.1043 73.0696C43.7414 73.5765 43.566 74.0952 43.5765 74.6244C43.5923 75.1479 43.8034 75.6189 44.2085 76.0377C44.5226 76.3635 44.8622 76.5592 45.2241 76.6242C45.5815 76.6853 45.9331 76.663 46.2791 76.5592C46.6261 76.4546 47.0472 76.2888 47.5432 76.063C47.9962 75.87 48.346 75.7343 48.5908 75.6578C48.8365 75.5695 49.0551 75.5366 49.2472 75.5579C49.4338 75.5745 49.6018 75.6597 49.7509 75.8148C49.9693 76.0397 50.0678 76.3081 50.0462 76.6164C50.0303 76.9189 49.9056 77.2805 49.5905 77.6051L48.0449 79.1455L48.7127 79.889L49.7742 78.8993C49.8117 78.8828 49.8408 78.8857 49.8625 78.908L50.3904 79.4702C50.4166 79.4973 50.4467 79.511 50.4785 79.511C50.5208 79.511 50.5563 79.4973 50.5826 79.4702L51.2072 78.8256C51.2335 78.7975 51.2447 78.7656 51.2391 78.7257C51.2437 78.6871 51.2335 78.654 51.2072 78.6259L50.6717 78.0879C50.6501 78.0666 50.6473 78.0355 50.6633 77.9968C51.0703 77.4559 51.2682 76.9101 51.257 76.3596Z" fill="#222222"/>
</svg>
