<svg width="33" height="32" viewBox="0 0 33 32" fill="none" xmlns="http://www.w3.org/2000/svg">
<path d="M16.4102 4.35725e-07C8.36224 -0.00103333 1.50169 5.83564 0.213142 13.7798C-1.0754 21.724 3.58855 29.43 11.2243 31.9728C12.0467 32.1208 12.3411 31.6159 12.3411 31.1817C12.3411 30.7919 12.3279 29.7589 12.323 28.3856C7.75872 29.3724 6.79488 26.1849 6.79488 26.1849C6.49441 25.193 5.84844 24.3416 4.97411 23.7851C3.49381 22.767 5.0876 22.79 5.0876 22.79C6.14138 22.9345 7.06882 23.5589 7.59918 24.4809C8.04809 25.2971 8.8044 25.9002 9.70006 26.1563C10.5957 26.4123 11.5565 26.3 12.369 25.8444C12.4454 25.0121 12.8157 24.2343 13.4135 23.6502C9.77193 23.2374 5.94289 21.8295 5.94289 15.5415C5.92268 13.9151 6.52662 12.3429 7.63043 11.1483C7.13099 9.73266 7.18981 8.17989 7.79491 6.80609C7.79491 6.80609 9.17159 6.36364 12.3049 8.4854C14.9922 7.74856 17.8283 7.74856 20.5156 8.4854C23.6506 6.362 25.0256 6.80609 25.0256 6.80609C25.6335 8.17924 25.6924 9.73309 25.1901 11.1483C26.2979 12.3428 26.9014 13.9192 26.8743 15.5481C26.8743 21.8525 23.042 23.2374 19.3873 23.6437C20.1757 24.4497 20.58 25.5555 20.4975 26.6799C20.4975 28.8741 20.4778 30.6438 20.4778 31.1817C20.4778 31.6208 20.7706 32.1307 21.6077 31.9695C29.2403 29.4224 33.8992 21.716 32.608 13.7739C31.3168 5.83181 24.4566 -0.00184079 16.4102 4.35725e-07Z" fill="#ffffff"/>
</svg>
