<svg width="32" height="32" viewBox="0 0 32 32" fill="none" xmlns="http://www.w3.org/2000/svg">
<circle cx="16" cy="16" r="16" fill="white"/>
<path d="M16.2051 8C12.1811 7.99948 8.75084 10.9178 8.10657 14.8899C7.4623 18.862 9.79427 22.715 13.6121 23.9864C14.0233 24.0604 14.1705 23.808 14.1705 23.5908C14.1705 23.3959 14.164 22.8795 14.1615 22.1928C11.8794 22.6862 11.3974 21.0924 11.3974 21.0924C11.2472 20.5965 10.9242 20.1708 10.4871 19.8926C9.74691 19.3835 10.5438 19.395 10.5438 19.395C11.0707 19.4673 11.5344 19.7794 11.7996 20.2404C12.024 20.6485 12.4022 20.9501 12.85 21.0781C13.2979 21.2061 13.7783 21.15 14.1845 20.9222C14.2227 20.5061 14.4078 20.1171 14.7067 19.8251C12.886 19.6187 10.9714 18.9147 10.9714 15.7707C10.9613 14.9576 11.2633 14.1714 11.8152 13.5741C11.5655 12.8663 11.5949 12.0899 11.8975 11.403C11.8975 11.403 12.5858 11.1818 14.1524 12.2427C15.4961 11.8743 16.9141 11.8743 18.2578 12.2427C19.8253 11.181 20.5128 11.403 20.5128 11.403C20.8167 12.0896 20.8462 12.8665 20.595 13.5741C21.149 14.1714 21.4507 14.9596 21.4372 15.774C21.4372 18.9263 19.521 19.6187 17.6936 19.8218C18.0878 20.2249 18.29 20.7777 18.2488 21.34C18.2488 22.437 18.2389 23.3219 18.2389 23.5908C18.2389 23.8104 18.3853 24.0654 18.8039 23.9848C22.6201 22.7112 24.9496 18.858 24.304 14.8869C23.6584 10.9159 20.2283 7.99908 16.2051 8Z" fill="#191F25"/>
</svg>
