<svg width="80" height="75" viewBox="0 0 80 75" fill="none" xmlns="http://www.w3.org/2000/svg">
<path d="M19.1566 31.9833V38.1537C19.1566 39.0922 18.5446 39.9209 17.6474 40.197L8.27911 43.0795C6.48521 43.6317 5.26099 45.2891 5.26099 47.1661V62.7141C5.26099 65.6658 7.6538 68.0586 10.6055 68.0586H13.2777H41.3361V31.9833H19.1566Z" fill="#D29B6E"/>
<path d="M26.6388 48.0168C21.4657 48.0168 16.9049 45.3013 14.2838 41.2321L8.27911 43.0797C6.4852 43.6318 5.26099 45.2891 5.26099 47.1661V62.7141C5.26099 65.6658 7.6538 68.0586 10.6055 68.0586H13.2777H41.3361V33.3196C41.336 41.403 34.7222 48.0168 26.6388 48.0168Z" fill="#1E90FF"/>
<path d="M41.3362 33.3196C41.3362 41.403 34.7224 48.0169 26.6388 48.0169C21.4657 48.0169 16.9049 45.3015 14.2838 41.2322L11.6376 42.0465C14.6482 47.2097 20.231 50.6891 26.6388 50.6891C32.8371 50.6891 38.2623 47.4324 41.3362 42.5468V33.3196Z" fill="#1E90FF"/>
<path d="M27.975 61.378H14.6138C13.876 61.378 13.2777 60.7797 13.2777 60.0419V52.0252L6.01317 44.7607C5.53974 45.4541 5.26099 46.2833 5.26099 47.1661V62.7141C5.26099 65.6658 7.6538 68.0586 10.6055 68.0586H13.2777H31.9833V65.3865C31.9833 63.1726 30.1888 61.378 27.975 61.378Z" fill="#1E90FF"/>
<path d="M38.664 22.6305H37.7977L37.3279 13.2776H15.9499L15.4796 22.6305H14.6138C13.507 22.6305 12.6096 23.5278 12.6096 24.6347V27.3069C12.6096 28.4137 13.507 29.3111 14.6138 29.3111H16.5485L16.7657 30.6678C16.929 31.6883 17.4565 32.6151 18.2504 33.2769L22.5406 36.852C23.1168 37.3322 23.8432 37.5953 24.5935 37.5953H28.6846C29.4346 37.5953 30.1612 37.3322 30.7376 36.852L35.0277 33.2769C35.8218 32.6153 36.3491 31.6884 36.5124 30.6678L36.7296 29.3111H38.6642C39.771 29.3111 40.6684 28.4137 40.6684 27.3069V24.6347C40.6682 23.528 39.7707 22.6305 38.664 22.6305Z" fill="#F0C087"/>
<path d="M40.081 23.2177C39.8996 23.0364 39.6837 22.8897 39.444 22.7881C39.2041 22.6867 38.9404 22.6306 38.6638 22.6306H37.7974L37.3276 13.2778H15.9498L15.4795 22.6306H14.6138C13.507 22.6306 12.6096 23.528 12.6096 24.6349V27.3071C12.6096 28.4139 13.507 29.3113 14.6138 29.3113H16.5485L16.7657 30.668C16.929 31.6886 17.4565 32.6153 18.2504 33.2771L22.5404 36.8521C23.1168 37.3324 23.8431 37.5955 24.5934 37.5955H26.2826L24.4468 32.0881C24.1288 31.1341 23.9667 30.1352 23.9667 29.1299V21.8838C23.9667 21.1736 24.5245 20.6172 25.2317 20.5519C25.9051 20.4896 26.5645 20.3299 27.1738 20.0572C28.8245 20.7964 30.8546 20.7985 32.5079 20.0617L32.8798 22.2883C33.2346 24.4138 35.0738 25.9711 37.2287 25.9711H39.5995C39.9743 25.9711 40.3284 25.8858 40.6681 25.7641V24.635C40.6682 24.0813 40.4437 23.5803 40.081 23.2177Z" fill="#E6AF78"/>
<path d="M42.6721 13.0105C42.6721 11.53 41.6633 10.2963 40.2994 9.92735C40.4477 9.55828 40.5343 9.15719 40.5343 8.73485C40.5343 6.96375 39.0986 5.52813 37.3275 5.52813C37.2622 5.52813 37.2014 5.54344 37.1371 5.54735C36.7007 4.29469 35.5221 3.39031 34.1208 3.39031C33.7766 3.39031 33.4502 3.45438 33.1416 3.55844C32.4572 2.80391 31.4786 2.32141 30.3797 2.32141C30.0963 2.32141 29.8229 2.35907 29.5575 2.4186C28.7925 1.70047 27.7707 1.2525 26.6386 1.2525C25.5066 1.2525 24.4846 1.70047 23.7197 2.4186C23.4544 2.35891 23.1808 2.32141 22.8975 2.32141C21.8775 2.32141 20.955 2.73203 20.28 3.39422C20.2615 3.39391 20.244 3.39031 20.2252 3.39031C18.824 3.39031 17.6454 4.29485 17.209 5.54735C17.1446 5.54344 17.0836 5.52813 17.0185 5.52813C15.2474 5.52813 13.8118 6.96375 13.8118 8.73485C13.8118 9.15703 13.8983 9.55813 14.0465 9.92735C12.6827 10.2963 11.674 11.53 11.674 13.0105C11.674 13.8355 11.9943 14.5798 12.5061 15.1483C11.9943 15.7164 11.674 16.4611 11.674 17.2861C11.674 18.473 12.3265 19.4948 13.2861 20.0466C13.3338 21.4806 14.5038 22.6306 15.9496 22.6306H17.1177C17.64 22.6306 18.086 22.2528 18.1721 21.7375L18.918 17.2622C18.9982 17.2681 19.0747 17.2863 19.1563 17.2863C20.2732 17.2863 21.2543 16.7141 21.8285 15.8481C22.4027 16.7141 23.3839 17.2863 24.5007 17.2863C25.6174 17.2863 26.5986 16.7141 27.1729 15.8481C27.7471 16.7141 28.7283 17.2863 29.845 17.2863C30.9618 17.2863 31.943 16.7141 32.5172 15.8481C33.0914 16.7141 34.0727 17.2863 35.1894 17.2863C35.271 17.2863 35.3475 17.2683 35.4277 17.2622L36.1736 21.7375C36.2596 22.253 36.7055 22.6306 37.228 22.6306H38.6633C40.1391 22.6306 41.3355 21.4341 41.3355 19.9584C41.3355 19.9308 41.3282 19.905 41.3274 19.8775C42.1386 19.2989 42.6718 18.3595 42.6718 17.2863C42.6718 16.4613 42.3514 15.7167 41.8396 15.1484C42.3518 14.5798 42.6721 13.8355 42.6721 13.0105Z" fill="#694B4B"/>
<path d="M25.8563 14.9578C24.6036 14.5214 23.6993 13.3428 23.6993 11.9416C23.6993 11.1166 24.0196 10.372 24.5315 9.80375C24.0196 9.23563 23.6993 8.49094 23.6993 7.66594C23.6993 6.18547 24.708 4.95172 26.0719 4.58281C25.9236 4.21375 25.8372 3.81266 25.8372 3.39031C25.8372 2.56656 26.1568 1.82328 26.6671 1.25531C26.6574 1.25531 26.6485 1.2525 26.6388 1.2525C25.5068 1.2525 24.4847 1.70047 23.7199 2.4186C23.4546 2.35891 23.181 2.32141 22.8977 2.32141C21.8777 2.32141 20.9552 2.73203 20.2802 3.39422C20.2616 3.39391 20.2441 3.39031 20.2254 3.39031C18.8241 3.39031 17.6455 4.29485 17.2091 5.54735C17.1447 5.54344 17.0838 5.52813 17.0186 5.52813C15.2475 5.52813 13.8119 6.96375 13.8119 8.73485C13.8119 9.15703 13.8985 9.55813 14.0466 9.92735C12.6827 10.2963 11.674 11.53 11.674 13.0105C11.674 13.8355 11.9943 14.5798 12.5061 15.1483C11.9943 15.7164 11.674 16.4611 11.674 17.2861C11.674 18.473 12.3265 19.4948 13.2861 20.0466C13.3338 21.4806 14.5038 22.6306 15.9496 22.6306H17.1177C17.64 22.6306 18.086 22.2528 18.1721 21.7375L18.918 17.2622C18.9982 17.2681 19.0747 17.2863 19.1563 17.2863C20.2732 17.2863 21.2543 16.7141 21.8285 15.8481C22.4027 16.7141 23.384 17.2863 24.5007 17.2863C25.2382 17.2863 25.9033 17.0197 26.4446 16.6006C26.0785 16.2194 25.8368 15.7198 25.8368 15.1484C25.8371 15.083 25.8504 15.0216 25.8563 14.9578Z" fill="#5A4146"/>
<path d="M23.9665 61.378H27.9747C30.1885 61.378 31.983 63.1725 31.983 65.3863V68.0585H23.9663V61.378H23.9665Z" fill="#E6AF78"/>
<path d="M41.3359 33.3196C41.3359 41.403 34.7222 48.0169 26.6386 48.0169C21.4655 48.0169 16.9047 45.3015 14.2836 41.2322L10.3281 42.4493C13.5355 48.1557 19.6398 52.0252 26.6386 52.0252C32.6008 52.0252 37.9083 49.2111 41.3359 44.8524V33.3196Z" fill="#1E90FF"/>
<path d="M74.7391 58.7056H34.6555C32.4417 58.7056 30.6472 56.9111 30.6472 54.6974V30.6472C30.6472 28.4334 32.4417 26.6389 34.6555 26.6389H74.7391C76.9528 26.6389 78.7474 28.4334 78.7474 30.6472V54.6974C78.7474 56.9111 76.9528 58.7056 74.7391 58.7056Z" fill="#D5DCED"/>
<path d="M62.7141 68.0584L60.351 50.3356C60.174 49.0079 59.0416 48.0165 57.7021 48.0165H51.6924C50.3532 48.0165 49.2205 49.0079 49.0435 50.3356L46.6805 68.0584H62.7141Z" fill="#AFB9D2"/>
<path d="M54.6973 42.6722C56.1731 42.6722 57.3695 41.4758 57.3695 40C57.3695 38.5242 56.1731 37.3278 54.6973 37.3278C53.2215 37.3278 52.0251 38.5242 52.0251 40C52.0251 41.4758 53.2215 42.6722 54.6973 42.6722Z" fill="white"/>
<path d="M77.4113 73.403H2.58878C1.85097 73.403 1.25269 72.8047 1.25269 72.0669V69.3947C1.25269 68.6569 1.85097 68.0586 2.58878 68.0586H77.4113C78.1491 68.0586 78.7474 68.6569 78.7474 69.3947V72.0669C78.7474 72.8047 78.1492 73.403 77.4113 73.403Z" fill="#B9DCFF"/>
<path d="M74.7391 59.9583C77.64 59.9583 80 57.5981 80 54.6973V30.6472C80 27.7462 77.6398 25.3862 74.7391 25.3862H41.787V24.7683C41.787 23.9569 41.5 23.2119 41.023 22.6277C41.3769 22.1945 41.6237 21.6758 41.7294 21.1136C43.0702 20.3231 43.9248 18.8753 43.9248 17.2859C43.9248 16.5353 43.7316 15.8017 43.3694 15.1481C43.7314 14.4945 43.9248 13.7611 43.9248 13.0103C43.9248 11.4275 43.0769 9.9925 41.762 9.20156C41.7788 9.04656 41.787 8.89094 41.787 8.73469C41.787 6.48328 40.1098 4.61609 37.9392 4.31719C37.1467 2.98547 35.7041 2.13766 34.1209 2.13766C33.9177 2.13766 33.7123 2.15328 33.5067 2.18453C32.6225 1.46859 31.518 1.06875 30.3798 1.06875C30.2278 1.06875 30.0755 1.07641 29.9211 1.09188C28.9705 0.383906 27.8263 0 26.6389 0C25.4516 0 24.3073 0.383906 23.3566 1.09188C23.202 1.07656 23.0497 1.06875 22.8978 1.06875C21.7567 1.06875 20.6698 1.45266 19.7872 2.15953C18.3792 2.3 17.1261 3.10953 16.4075 4.31734C14.2369 4.61609 12.5597 6.48328 12.5597 8.73469C12.5597 8.89078 12.568 9.04656 12.5847 9.20156C11.27 9.9925 10.4219 11.4275 10.4219 13.0103C10.4219 13.7611 10.6152 14.4945 10.9773 15.1481C10.6152 15.8017 10.4219 16.5353 10.4219 17.2859C10.4219 18.8753 11.2766 20.3231 12.6175 21.1136C12.6764 21.4273 12.7806 21.727 12.9216 22.0064C12.0572 22.6216 11.4908 23.6289 11.4908 24.7681V26.9059C11.4908 28.7753 13.0116 30.2964 14.8812 30.2964H15.438L15.5291 30.8655C15.7402 32.1852 16.4219 33.3833 17.4487 34.2391L17.9044 34.6187V38.1539C17.9044 38.5448 17.6531 38.885 17.2794 38.9998L7.91062 41.8825C5.57656 42.6008 4.00828 44.7241 4.00828 47.1662V62.7142C4.00828 64.2591 4.54359 65.6806 5.43641 66.8061H2.58875C1.16125 66.8059 0 67.9672 0 69.3947V72.0669C0 73.4944 1.16125 74.6556 2.58875 74.6556H77.4113C78.8388 74.6556 80 73.4944 80 72.0669V69.3947C80 67.9672 78.8388 66.8059 77.4113 66.8059H63.8106L62.8975 59.9583H74.7391ZM77.4948 30.6472V54.6973C77.4948 56.2169 76.2586 57.4531 74.7391 57.4531H62.7141C62.6634 57.4531 62.6141 57.457 62.5648 57.4628L61.5925 50.1703C61.3336 48.2286 59.6611 46.7642 57.7022 46.7642H51.6925C49.7336 46.7642 48.0609 48.2286 47.802 50.1703L46.8297 57.4628C46.7808 57.457 46.7311 57.4531 46.6805 57.4531H34.6555C33.1359 57.4531 31.8997 56.2169 31.8997 54.6973V30.6472C31.8997 29.1277 33.1359 27.8914 34.6555 27.8914H74.7391C76.2586 27.8916 77.4948 29.1277 77.4948 30.6472ZM42.5845 66.8059C42.5864 66.7783 42.5887 66.7506 42.5887 66.7225V59.9584H46.4969L45.5837 66.8061H42.5845V66.8059ZM38.6256 25.3862L38.8459 24.0098C39.1056 24.1644 39.2819 24.4447 39.2819 24.7683V25.3862H38.6256ZM13.4372 14.3098C13.2044 14.0514 12.927 13.6163 12.927 13.0105C12.927 12.1377 13.522 11.367 14.3742 11.1364C14.7195 11.0428 15.0086 10.8062 15.168 10.4859C15.3277 10.1658 15.3427 9.7925 15.2094 9.46047C15.1133 9.22188 15.0647 8.97766 15.0647 8.735C15.0647 7.67281 15.9166 6.80578 16.9731 6.78141C17.0264 6.78859 17.08 6.79453 17.1345 6.79781C17.6955 6.83 18.2077 6.48891 18.392 5.95953C18.6619 5.18484 19.3791 4.66047 20.185 4.64344C20.2092 4.64516 20.2336 4.64625 20.2581 4.64656C20.5967 4.65062 20.9177 4.52344 21.1573 4.28828C21.627 3.82766 22.2452 3.57391 22.8977 3.57391C23.0666 3.57391 23.2456 3.59578 23.445 3.64047C23.8498 3.73156 24.2744 3.61609 24.5773 3.33172C25.1453 2.79875 25.8773 2.50516 26.6389 2.50516C27.4005 2.50516 28.1325 2.79875 28.7003 3.33187C29.0031 3.61625 29.4275 3.73187 29.8327 3.64062C30.032 3.59562 30.2111 3.57406 30.38 3.57406C31.0795 3.57406 31.7309 3.8675 32.2142 4.40016C32.5489 4.76906 33.0703 4.90453 33.5422 4.74547C33.7469 4.67656 33.9364 4.64297 34.1213 4.64297C34.9434 4.64297 35.6803 5.17203 35.9547 5.95937C36.1391 6.48859 36.6516 6.83109 37.2122 6.79766C37.2633 6.79469 37.3136 6.78906 37.3733 6.78125C38.4298 6.80547 39.2819 7.67266 39.2819 8.73484C39.2819 8.9775 39.2333 9.22172 39.1373 9.46016C39.0039 9.79219 39.0189 10.1655 39.1786 10.4858C39.3383 10.8061 39.6272 11.0428 39.9727 11.1362C40.8245 11.3669 41.4197 12.1375 41.4197 13.0103C41.4197 13.6161 41.142 14.0512 40.9095 14.3097C40.4803 14.7862 40.4803 15.51 40.9095 15.9866C41.1423 16.245 41.4197 16.6802 41.4197 17.2859C41.4197 18.1081 40.8906 18.845 40.1031 19.1192C39.5603 19.3084 39.2158 19.843 39.2678 20.4155C39.2712 20.4539 39.2759 20.492 39.2812 20.53C39.2647 20.9103 38.9984 21.2402 38.6223 21.3402C38.5822 21.3508 37.3842 21.3778 37.3842 21.3778L36.6639 17.0559C36.5573 16.4167 35.9795 15.9644 35.3348 16.0128C35.2767 16.0172 35.2198 16.0242 35.1627 16.032L35.1553 16.033C34.5134 16.0216 33.9197 15.6955 33.5617 15.1555C33.3295 14.8056 32.9378 14.5952 32.5178 14.5952C32.098 14.5952 31.7059 14.8056 31.4739 15.1553C31.1094 15.705 30.5008 16.0331 29.8455 16.0331C29.1903 16.0331 28.5817 15.705 28.217 15.1553C27.9848 14.8055 27.5931 14.595 27.1731 14.595C26.7533 14.595 26.3612 14.8055 26.1292 15.1552C25.7647 15.7048 25.1561 16.033 24.5008 16.033C23.8456 16.033 23.237 15.7048 22.8723 15.1552C22.6402 14.8053 22.2484 14.5948 21.8284 14.5948C21.4086 14.5948 21.0166 14.8053 20.7845 15.155C20.4264 15.695 19.8327 16.0211 19.1909 16.0325L19.1836 16.0316C19.1266 16.0237 19.0694 16.0167 19.0112 16.0123C18.3667 15.9631 17.7889 16.4164 17.6823 17.0555L16.9622 21.3778C16.9622 21.3778 15.7644 21.3509 15.7242 21.3402C15.348 21.2402 15.0816 20.91 15.0653 20.5297C15.0703 20.4917 15.075 20.4539 15.0784 20.4155C15.1305 19.843 14.7859 19.3084 14.2431 19.1192C13.4556 18.8448 12.9266 18.1081 12.9266 17.2859C12.9266 16.6802 13.2042 16.245 13.4367 15.9866C13.8664 15.5102 13.8664 14.7864 13.4372 14.3098ZM14.8809 27.7912C14.393 27.7912 13.9958 27.3942 13.9958 26.9061V24.7683C13.9958 24.4448 14.172 24.1644 14.4317 24.0098L15.0369 27.7912H14.8809ZM16.9484 23.8831H17.118C18.2573 23.8831 19.2203 23.0672 19.408 21.9433L19.9883 18.4606C20.6589 18.3337 21.2873 18.0547 21.8287 17.6481C22.5892 18.2192 23.5219 18.5386 24.5009 18.5386C25.4798 18.5386 26.4127 18.2191 27.1731 17.6481C27.9336 18.2192 28.8662 18.5386 29.8453 18.5386C30.8242 18.5386 31.757 18.2191 32.5175 17.6481C33.0588 18.0547 33.6873 18.3336 34.358 18.4606L34.9383 21.9434C35.075 22.7637 35.6259 23.4181 36.3561 23.7128L36.0884 25.3862H34.6553C31.7544 25.3862 29.3944 27.7464 29.3944 30.6472V36.2066C29.1689 36.2945 28.928 36.3423 28.6844 36.3423H24.593C24.1367 36.3423 23.6925 36.1816 23.342 35.8894L19.0519 32.3142C18.4903 31.8462 18.1177 31.1912 18.0022 30.4695L16.9484 23.8831ZM18.0159 41.3944C19.4477 40.9539 20.4094 39.6516 20.4094 38.1539V36.7064L21.7384 37.8141C22.5383 38.4806 23.552 38.8476 24.5933 38.8476H28.6847C28.923 38.8476 29.1605 38.8273 29.3947 38.7892V46.8492C28.6597 46.9694 27.9125 47.0314 27.1625 47.0314C22.9839 47.0314 19.0433 45.1195 16.4487 41.8767L18.0159 41.3944ZM6.51359 62.7141V47.1661C6.51359 45.8306 7.37125 44.6695 8.6475 44.2767L13.9048 42.6592C16.9447 46.9669 21.8934 49.5364 27.1625 49.5364C27.9108 49.5364 28.6569 49.4837 29.3947 49.382V54.6973C29.3947 57.5983 31.7548 59.9583 34.6556 59.9583H40.0836V66.7223C40.0836 66.7506 40.0859 66.7781 40.0878 66.8058H33.2359V65.3861C33.2359 62.4852 30.8758 60.1252 27.975 60.1252H14.6138C14.5677 60.1252 14.5303 60.0878 14.5303 60.0417V52.025C14.5303 51.3333 13.9695 50.7723 13.2777 50.7723C12.5859 50.7723 12.025 51.3331 12.025 52.025V60.0417C12.025 61.4692 13.1862 62.6305 14.6138 62.6305H22.7139V66.8058H10.6055C8.34922 66.8059 6.51359 64.9701 6.51359 62.7141ZM25.2192 66.8059V62.6306H27.975C29.4945 62.6306 30.7308 63.8669 30.7308 65.3864V66.8061H25.2192V66.8059ZM77.4948 69.3947V72.0669C77.4948 72.113 77.4575 72.1503 77.4114 72.1503H2.58875C2.54266 72.1503 2.50531 72.113 2.50531 72.0669V69.3947C2.50531 69.3486 2.54266 69.3112 2.58875 69.3112H77.4113C77.4573 69.3111 77.4948 69.3486 77.4948 69.3947ZM48.1112 66.8059L50.2852 50.5014C50.3789 49.7989 50.9837 49.2694 51.6925 49.2694H57.7022C58.4108 49.2694 59.0158 49.7989 59.1095 50.5014L61.2836 66.8059H48.1112Z" fill="black"/>
<path d="M54.6973 43.9248C56.8615 43.9248 58.6221 42.1642 58.6221 40C58.6221 37.8358 56.8615 36.0751 54.6973 36.0751C52.5331 36.0751 50.7725 37.8358 50.7725 40C50.7725 42.1642 52.5331 43.9248 54.6973 43.9248ZM54.6973 38.5804C55.4801 38.5804 56.117 39.2173 56.117 40.0001C56.117 40.7829 55.4801 41.4198 54.6973 41.4198C53.9145 41.4198 53.2776 40.7829 53.2776 40.0001C53.2776 39.2173 53.9145 38.5804 54.6973 38.5804Z" fill="black"/>
</svg>
