<svg width="80" height="57" viewBox="0 0 80 57" fill="none" xmlns="http://www.w3.org/2000/svg">
<path d="M76.0751 55.072H3.92481C2.44887 55.072 1.25262 53.8057 1.25262 52.2433V4.15473C1.25262 2.59236 2.44887 1.32605 3.92481 1.32605H76.0751C77.5511 1.32605 78.7473 2.59236 78.7473 4.15473V52.2433C78.7473 53.8055 77.5511 55.072 76.0751 55.072Z" fill="#E4EAF8"/>
<path d="M70.7308 6.98352H9.26941V49.4144H70.7308V6.98352Z" fill="#1E90FF"/>
<path d="M48.0168 12.6409H31.9833C29.0316 12.6409 26.6388 15.1739 26.6388 18.2985V29.6134C26.6388 32.7379 29.0316 35.2709 31.9833 35.2709H48.0168C50.9685 35.2709 53.3613 32.7379 53.3613 29.6134V18.2985C53.3611 15.1739 50.9683 12.6409 48.0168 12.6409ZM44.2905 25.2208L37.9254 28.5899C37.0371 29.0601 35.9916 28.3763 35.9916 27.3249V20.5869C35.9916 19.5355 37.0368 18.8517 37.9254 19.3218L44.2905 22.6908C45.2752 23.212 45.2752 24.6996 44.2905 25.2208Z" fill="white"/>
<path d="M25.3027 45.1712C26.7785 45.1712 27.9749 43.9048 27.9749 42.3425C27.9749 40.7803 26.7785 39.5139 25.3027 39.5139C23.8269 39.5139 22.6305 40.7803 22.6305 42.3425C22.6305 43.9048 23.8269 45.1712 25.3027 45.1712Z" fill="white"/>
<path d="M76.0752 0H3.92484C1.76062 0 0 1.8639 0 4.1547V52.2433C0 54.5343 1.76062 56.398 3.92484 56.398H76.0752C78.2394 56.398 80 54.5343 80 52.2433V4.1547C80 1.8639 78.2394 0 76.0752 0ZM77.4948 52.2433C77.4948 53.072 76.858 53.7461 76.0752 53.7461H3.92484C3.14203 53.7461 2.50516 53.072 2.50516 52.2433V4.1547C2.50516 3.32604 3.14203 2.65187 3.92484 2.65187H76.0752C76.858 2.65187 77.4948 3.32604 77.4948 4.1547V52.2433Z" fill="black"/>
<path d="M70.7306 5.65753H9.26932C8.5776 5.65753 8.01666 6.25115 8.01666 6.98355V49.4145C8.01666 50.1467 8.57744 50.7405 9.26932 50.7405H70.7307C71.4224 50.7405 71.9834 50.1469 71.9834 49.4145V6.98355C71.9832 6.25115 71.4224 5.65753 70.7306 5.65753ZM69.4781 48.0886H10.5218V8.3094H69.4781V48.0886Z" fill="black"/>
<path d="M5.26102 25.4586C4.5693 25.4586 4.00836 26.0522 4.00836 26.7846V29.6133C4.00836 30.3455 4.56914 30.9393 5.26102 30.9393C5.95289 30.9393 6.51367 30.3457 6.51367 29.6133V26.7846C6.51367 26.0522 5.95289 25.4586 5.26102 25.4586Z" fill="black"/>
<path d="M74.7391 24.0443C74.0474 24.0443 73.4865 24.6379 73.4865 25.3703V31.0279C73.4865 31.7601 74.0472 32.3539 74.7391 32.3539C75.431 32.3539 75.9918 31.7603 75.9918 31.0279V25.3703C75.9918 24.6379 75.4308 24.0443 74.7391 24.0443Z" fill="black"/>
<path d="M74.7523 5.65753H74.7389C74.0471 5.65753 73.4929 6.25115 73.4929 6.98355C73.4929 7.71578 74.0604 8.30957 74.7521 8.30957C75.4439 8.30957 76.0048 7.71594 76.0048 6.98355C76.0049 6.25115 75.4442 5.65753 74.7523 5.65753Z" fill="black"/>
<path d="M5.26102 18.3867C4.5693 18.3867 4.00836 18.9803 4.00836 19.7127V21.1271C4.00836 21.8593 4.56914 22.4531 5.26102 22.4531C5.95289 22.4531 6.51367 21.8595 6.51367 21.1271V19.7127C6.51367 18.9805 5.95289 18.3867 5.26102 18.3867Z" fill="black"/>
<path d="M5.26102 33.9448C4.5693 33.9448 4.00836 34.5384 4.00836 35.2708V36.6852C4.00836 37.4174 4.56914 38.0112 5.26102 38.0112C5.95289 38.0112 6.51367 37.4176 6.51367 36.6852V35.2708C6.51367 34.5384 5.95289 33.9448 5.26102 33.9448Z" fill="black"/>
<path d="M14.6137 43.6686H21.5836C22.1076 45.311 23.5761 46.4973 25.3023 46.4973C27.0286 46.4973 28.497 45.311 29.0211 43.6686H65.3862C66.078 43.6686 66.6389 43.075 66.6389 42.3426C66.6389 41.6103 66.0781 41.0165 65.3862 41.0165H29.0211C28.497 39.3741 27.0286 38.1879 25.3023 38.1879C23.5761 38.1879 22.1076 39.3741 21.5836 41.0165H14.6137C13.922 41.0165 13.3611 41.6102 13.3611 42.3426C13.3611 43.075 13.922 43.6686 14.6137 43.6686ZM25.3023 40.8399C26.0851 40.8399 26.722 41.5141 26.722 42.3427C26.722 43.1714 26.0851 43.8456 25.3023 43.8456C24.5198 43.8456 23.8833 43.1717 23.8826 42.3437C23.8826 42.3434 23.8826 42.3432 23.8826 42.3429C23.8826 42.3426 23.8826 42.3424 23.8826 42.3421C23.8833 41.5136 24.5198 40.8399 25.3023 40.8399Z" fill="black"/>
<path d="M35.9667 29.6559C36.3851 29.9297 36.8547 30.0676 37.3261 30.0676C37.7209 30.0676 38.117 29.9709 38.4853 29.7758L44.8505 26.4068C45.7331 25.9395 46.2814 25.0004 46.2814 23.9557C46.2814 22.9111 45.7331 21.9719 44.8505 21.5046L38.4853 18.1356C37.677 17.7077 36.7353 17.7525 35.9665 18.2555C35.1978 18.7585 34.7389 19.63 34.7389 20.5867V27.3246C34.739 28.2814 35.198 29.1529 35.9667 29.6559ZM37.2442 20.5868C37.2442 20.5685 37.2442 20.5376 37.2837 20.5116C37.3009 20.5005 37.3155 20.4967 37.3278 20.4967C37.344 20.4967 37.3562 20.5033 37.365 20.5078L43.7301 23.8768C43.7506 23.8877 43.7762 23.9013 43.7762 23.9559C43.7762 24.0105 43.7506 24.0242 43.7301 24.0349L37.365 27.404C37.3495 27.4121 37.3233 27.4262 37.2839 27.4004C37.2442 27.3742 37.2442 27.3435 37.2442 27.3251V20.5868Z" fill="black"/>
<path d="M31.9833 36.5967H48.0167C51.6544 36.5967 54.6137 33.4639 54.6137 29.6133V18.2984C54.6137 14.4478 51.6542 11.3151 48.0167 11.3151H31.9833C28.3456 11.3151 25.3862 14.4479 25.3862 18.2984V29.6133C25.3862 33.464 28.3458 36.5967 31.9833 36.5967ZM27.8914 18.2984C27.8914 15.9101 29.727 13.9669 31.9833 13.9669H48.0167C50.2729 13.9669 52.1086 15.9101 52.1086 18.2984V29.6133C52.1086 32.0017 50.2729 33.9449 48.0167 33.9449H31.9833C29.727 33.9449 27.8914 32.0017 27.8914 29.6133V18.2984Z" fill="black"/>
</svg>
