<svg width="80" height="74" viewBox="0 0 80 74" fill="none" xmlns="http://www.w3.org/2000/svg">
<path d="M76.075 61.3778H9.26923C7.7933 61.3778 6.59705 60.1816 6.59705 58.7056V17.286C6.59705 15.81 7.7933 14.6138 9.26923 14.6138H76.075C77.5509 14.6138 78.7472 15.81 78.7472 17.286V58.7056C78.7472 60.1814 77.5508 61.3778 76.075 61.3778Z" fill="#1E90FF"/>
<path d="M46.6807 56.0334H38.6639V61.378H46.6807V56.0334Z" fill="#B9DCFF"/>
<path d="M45.3445 11.9416C43.8687 11.9416 42.6723 13.1378 42.6723 14.6138C42.6723 13.1378 41.4757 11.9416 40.0001 11.9416H11.9415V56.0335H40C41.4757 56.0335 42.6722 57.2297 42.6722 58.7057C42.6722 57.2297 43.8687 56.0335 45.3443 56.0335H73.4028V11.9416H45.3445Z" fill="#E4EAF8"/>
<path d="M14.6138 45.3444H3.92487C2.44894 45.3444 1.25269 46.5406 1.25269 48.0165V66.7222H17.286V48.0167C17.286 46.5408 16.0897 45.3444 14.6138 45.3444Z" fill="white"/>
<path d="M17.286 66.7223H1.25269V69.3945C1.25269 70.8704 2.44894 72.0667 3.92487 72.0667H14.6138C16.0897 72.0667 17.286 70.8704 17.286 69.3945V66.7223Z" fill="#1E90FF"/>
<path d="M53.361 41.3361L50.6888 48.0167L48.0166 41.3361V2.58878C48.0166 1.85097 48.6149 1.25269 49.3527 1.25269H52.0249C52.7627 1.25269 53.361 1.85097 53.361 2.58878V41.3361Z" fill="#1E90FF"/>
<path d="M52.0249 1.25269H49.3527C48.6149 1.25269 48.0166 1.85097 48.0166 2.58878V6.59706H53.3611V2.58878C53.361 1.85081 52.7628 1.25269 52.0249 1.25269Z" fill="#FCD7C4"/>
<path d="M48.0166 40V41.3361L50.6888 48.0167L53.361 41.3361V40H48.0166Z" fill="#FCD7C4"/>
<path d="M76.0752 13.3611H74.6555V11.9414C74.6555 11.2497 74.0947 10.6888 73.4028 10.6888H54.6138V2.58875C54.6138 1.16125 53.4525 0 52.025 0H49.3528C47.9253 0 46.7641 1.16125 46.7641 2.58875V10.6889H45.3444C44.3127 10.6889 43.3734 11.0895 42.6722 11.7428C41.9709 11.0897 41.0316 10.6889 40 10.6889H11.9416C11.2498 10.6889 10.6889 11.2497 10.6889 11.9416V13.3613H9.26922C7.105 13.3613 5.34437 15.1219 5.34437 17.2861V44.0919H3.92469C1.76062 44.0919 0 45.8525 0 48.0167V69.3945C0 71.5588 1.76062 73.3194 3.92484 73.3194H14.6138C16.778 73.3194 18.5386 71.5588 18.5386 69.3945V62.6305H41.4195V62.7139C41.4195 63.4056 41.9803 63.9666 42.6722 63.9666C43.3639 63.9666 43.9248 63.4058 43.9248 62.7139V62.6305H76.0752C78.2394 62.6305 80 60.8699 80 58.7056V17.2859C80 15.1219 78.2394 13.3611 76.0752 13.3611ZM52.1086 38.7473H49.2694V7.84969H52.1086V38.7473ZM52.0455 41.2527L50.6889 44.6441L49.3323 41.2527H52.0455ZM49.3528 2.50516H52.025C52.0711 2.50516 52.1084 2.5425 52.1084 2.58859V5.34438H49.2692V2.58875C49.2694 2.54266 49.3067 2.50516 49.3528 2.50516ZM45.3445 13.1941H46.7642V41.3361C46.7642 41.4955 46.7947 41.6533 46.8539 41.8014L49.5261 48.482C49.7163 48.9575 50.1767 49.2694 50.6891 49.2694C51.2013 49.2694 51.6619 48.9575 51.852 48.482L54.5242 41.8014C54.5833 41.6534 54.6139 41.4955 54.6139 41.3361V13.1941H72.1505V54.7806H45.3445C44.8442 54.7806 44.3653 54.8747 43.9248 55.0463V52.025V14.6138C43.9248 13.8309 44.5617 13.1941 45.3445 13.1941ZM40 13.1941C40.7828 13.1941 41.4197 13.8309 41.4197 14.6138V52.025V55.0463C40.9792 54.8747 40.5005 54.7806 40 54.7806H18.5386V48.0166C18.5386 45.8523 16.778 44.0917 14.6138 44.0917H13.1941V13.1941H40ZM7.84969 17.2859C7.84969 16.5031 8.48656 15.8663 9.26937 15.8663H10.6891V44.0917H7.84969V17.2859ZM3.92484 46.597H14.6138C15.3966 46.597 16.0334 47.2339 16.0334 48.0167V65.4697H2.50531V48.0167C2.50516 47.2339 3.14203 46.597 3.92484 46.597ZM14.6138 70.8142H3.92484C3.14203 70.8142 2.50516 70.1774 2.50516 69.3945V67.9749H16.0333V69.3945C16.0334 70.1774 15.3966 70.8142 14.6138 70.8142ZM18.5386 57.2859H40C40.7828 57.2859 41.4197 57.9228 41.4197 58.7056V60.1253H18.5386V57.2859ZM77.4948 58.7056C77.4948 59.4884 76.858 60.1253 76.0752 60.1253H43.9248V58.7056C43.9248 57.9228 44.5617 57.2859 45.3445 57.2859H73.403C74.0947 57.2859 74.6556 56.7252 74.6556 56.0333V15.8664H76.0753C76.8581 15.8664 77.495 16.5033 77.495 17.2861V58.7056H77.4948Z" fill="black"/>
<path d="M6.59714 62.6305H11.9417C12.6334 62.6305 13.1943 62.0697 13.1943 61.3778C13.1943 60.6861 12.6335 60.1252 11.9417 60.1252H6.59714C5.90542 60.1252 5.34448 60.686 5.34448 61.3778C5.34464 62.0697 5.90542 62.6305 6.59714 62.6305Z" fill="black"/>
<path d="M6.59714 57.286H11.9417C12.6334 57.286 13.1943 56.7252 13.1943 56.0333C13.1943 55.3416 12.6335 54.7806 11.9417 54.7806H6.59714C5.90542 54.7806 5.34448 55.3414 5.34448 56.0333C5.34464 56.7252 5.90542 57.286 6.59714 57.286Z" fill="black"/>
<path d="M6.59714 51.9416H11.9417C12.6334 51.9416 13.1943 51.3808 13.1943 50.6889C13.1943 49.9972 12.6335 49.4363 11.9417 49.4363H6.59714C5.90542 49.4363 5.34448 49.9971 5.34448 50.6889C5.34464 51.3807 5.90542 51.9416 6.59714 51.9416Z" fill="black"/>
<path d="M9.27598 68.1419H9.26254C8.57082 68.1419 8.0166 68.7027 8.0166 69.3946C8.0166 70.0864 8.5841 70.6472 9.27582 70.6472C9.96754 70.6472 10.5285 70.0864 10.5285 69.3946C10.5285 68.7027 9.96785 68.1419 9.27598 68.1419Z" fill="black"/>
<path d="M18.6223 19.8747H35.9918C36.6835 19.8747 37.2445 19.3139 37.2445 18.622C37.2445 17.9303 36.6837 17.3694 35.9918 17.3694H18.6223C17.9306 17.3694 17.3696 17.9302 17.3696 18.622C17.3696 19.3139 17.9304 19.8747 18.6223 19.8747Z" fill="black"/>
<path d="M35.9919 22.7139H27.9748C27.2831 22.7139 26.7222 23.2747 26.7222 23.9666C26.7222 24.6585 27.2829 25.2192 27.9748 25.2192H35.9919C36.6836 25.2192 37.2445 24.6585 37.2445 23.9666C37.2445 23.2747 36.6836 22.7139 35.9919 22.7139Z" fill="black"/>
<path d="M18.6223 25.2192H22.6304C23.3221 25.2192 23.8831 24.6585 23.8831 23.9666C23.8831 23.2747 23.3223 22.7139 22.6304 22.7139H18.6223C17.9306 22.7139 17.3696 23.2747 17.3696 23.9666C17.3696 24.6585 17.9304 25.2192 18.6223 25.2192Z" fill="black"/>
<path d="M18.6223 30.5636H25.3029C25.9946 30.5636 26.5556 30.0028 26.5556 29.3109C26.5556 28.6191 25.9948 28.0583 25.3029 28.0583H18.6223C17.9306 28.0583 17.3696 28.6191 17.3696 29.3109C17.3696 30.0028 17.9304 30.5636 18.6223 30.5636Z" fill="black"/>
</svg>
