<svg width="300" height="300" viewBox="0 0 300 300" fill="none" xmlns="http://www.w3.org/2000/svg">
<rect width="300" height="300" rx="150" fill="#5CB7EA"/>
<rect x="134" y="31" width="30" height="63" fill="white"/>
<rect x="98" y="103" width="104" height="29" fill="white"/>
<rect x="128.434" y="117" width="24.4852" height="144.344" transform="rotate(30.1199 128.434 117)" fill="white"/>
<rect width="24.4852" height="144.344" transform="matrix(0.864977 -0.501811 -0.501811 -0.864977 222.434 254.141)" fill="white"/>
<path d="M49.4915 127.479C54.6828 149.064 67.7182 168.292 86.3708 181.878C105.023 195.463 128.135 202.563 151.759 201.965C175.382 201.367 198.05 193.107 215.891 178.597C233.731 164.087 245.637 144.227 249.574 122.411L229.206 119.188C226.066 136.587 216.572 152.425 202.344 163.996C188.116 175.567 170.039 182.154 151.2 182.632C132.361 183.109 113.929 177.447 99.0544 166.612C84.1794 155.778 73.7839 140.444 69.6439 123.23L49.4915 127.479Z" fill="white"/>
</svg>
