<svg width="32" height="32" viewBox="0 0 32 32" fill="none" xmlns="http://www.w3.org/2000/svg">
<path d="M15.9681 32C11.6035 32 11.0889 31.9769 9.38567 31.9024C8.05743 31.8587 6.74639 31.5887 5.50898 31.104C3.36804 30.2708 1.67512 28.5773 0.842759 26.436C0.37668 25.1941 0.125292 23.882 0.0993568 22.5558C0 20.8561 0 20.299 0 15.9681C0 11.591 0.023065 11.0801 0.0993568 9.38567C0.12586 8.06125 0.377239 6.75096 0.842759 5.51076C1.67422 3.36665 3.36988 1.67163 5.5143 0.840985C6.75386 0.372947 8.06449 0.120904 9.38922 0.0958084C11.0836 0 11.6407 0 15.9681 0C20.3682 0 20.8738 0.023065 22.5505 0.0958084C23.8786 0.121121 25.1927 0.373137 26.436 0.840985C28.5798 1.67257 30.2752 3.36727 31.1076 5.51076C31.5815 6.76903 31.8342 8.0998 31.8545 9.44422C31.9539 11.1439 31.9539 11.6993 31.9539 16.0284C31.9539 20.3575 31.929 20.9253 31.8545 22.6055C31.8281 23.9329 31.5761 25.2463 31.1093 26.4892C30.2748 28.632 28.5794 30.3262 26.436 31.159C25.1945 31.6242 23.8831 31.8756 22.5576 31.9024C20.8632 32 20.3078 32 15.9681 32ZM15.9077 2.8086C11.568 2.8086 11.1173 2.8299 9.42293 2.90619C8.41159 2.91959 7.41003 3.10622 6.46174 3.45797C5.06144 3.99381 3.95339 5.09735 3.41184 6.49545C3.05738 7.45407 2.87072 8.46658 2.86006 9.48858C2.76602 11.2078 2.76602 11.6585 2.76602 15.9681C2.76602 20.2262 2.78199 20.7425 2.86006 22.4511C2.87594 23.4628 3.06249 24.4645 3.41184 25.4141C3.95418 26.8112 5.06204 27.914 6.46174 28.4498C7.40938 28.8039 8.41136 28.9906 9.42293 29.0016C11.1404 29.1009 11.5928 29.1009 15.9077 29.1009C20.2599 29.1009 20.7106 29.0796 22.3908 29.0016C23.4028 28.9892 24.4051 28.8026 25.3537 28.4498C26.7456 27.9093 27.8464 26.8091 28.3877 25.4176C28.7414 24.4582 28.9281 23.4452 28.9395 22.4227H28.959C29.0353 20.7265 29.0353 20.2741 29.0353 15.9397C29.0353 11.6052 29.0157 11.1493 28.9395 9.45487C28.9235 8.44436 28.737 7.4438 28.3877 6.49545C27.8476 5.10193 26.7466 3.99963 25.3537 3.45797C24.4053 3.10444 23.4029 2.91776 22.3908 2.90619C20.6751 2.8086 20.2262 2.8086 15.9077 2.8086ZM15.9681 24.1632C12.6502 24.1654 9.65787 22.1685 8.38654 19.1039C7.1152 16.0393 7.81531 12.5107 10.1604 10.1636C12.5054 7.81653 16.0335 7.11336 19.0991 8.38205C22.1648 9.65073 24.1643 12.6414 24.165 15.9592C24.1601 20.4854 20.4942 24.1544 15.9681 24.1632ZM15.9681 10.633C13.0284 10.633 10.6454 13.016 10.6454 15.9556C10.6454 18.8953 13.0284 21.2783 15.9681 21.2783C18.9077 21.2783 21.2908 18.8953 21.2908 15.9556C21.2839 13.0188 18.9049 10.6398 15.9681 10.633ZM24.4844 9.36794C23.4294 9.36401 22.5769 8.5067 22.5788 7.45178C22.5808 6.39686 23.4365 5.5427 24.4915 5.5427C25.5464 5.5427 26.4021 6.39684 26.4041 7.45176C26.4046 7.96072 26.2023 8.44892 25.8421 8.80848C25.4819 9.16803 24.9933 9.36935 24.4844 9.36794Z" fill="#ffffff"/>
</svg>
