<svg width="32" height="32" viewBox="0 0 32 32" fill="none" xmlns="http://www.w3.org/2000/svg">
<circle cx="16" cy="16" r="16" fill="white"/>
<path d="M15.984 24C13.8017 24 13.5445 23.9885 12.6928 23.9512C12.0287 23.9294 11.3732 23.7944 10.7545 23.552C9.68402 23.1354 8.83756 22.2886 8.42138 21.218C8.18834 20.5971 8.06265 19.941 8.04968 19.2779C8 18.428 8 18.1495 8 15.984C8 13.7955 8.01153 13.54 8.04968 12.6928C8.06293 12.0306 8.18862 11.3755 8.42138 10.7554C8.83711 9.68333 9.68494 8.83581 10.7572 8.42049C11.3769 8.18647 12.0322 8.06045 12.6946 8.0479C13.5418 8 13.8204 8 15.984 8C18.1841 8 18.4369 8.01153 19.2752 8.0479C19.9393 8.06056 20.5964 8.18657 21.218 8.42049C22.2899 8.83629 23.1376 9.68363 23.5538 10.7554C23.7908 11.3845 23.9171 12.0499 23.9273 12.7221C23.9769 13.572 23.9769 13.8496 23.9769 16.0142C23.9769 18.1788 23.9645 18.4626 23.9273 19.3027C23.914 19.9665 23.7881 20.6231 23.5547 21.2446C23.1374 22.316 22.2897 23.1631 21.218 23.5795C20.5972 23.8121 19.9415 23.9378 19.2788 23.9512C18.4316 24 18.1539 24 15.984 24ZM15.9539 9.4043C13.784 9.4043 13.5587 9.41495 12.7115 9.45309C12.2058 9.45979 11.705 9.55311 11.2309 9.72899C10.5307 9.9969 9.97669 10.5487 9.70592 11.2477C9.52869 11.727 9.43536 12.2333 9.43003 12.7443C9.38301 13.6039 9.38301 13.8292 9.38301 15.984C9.38301 18.1131 9.391 18.3713 9.43003 19.2255C9.43797 19.7314 9.53124 20.2322 9.70592 20.707C9.97709 21.4056 10.531 21.957 11.2309 22.2249C11.7047 22.4019 12.2057 22.4953 12.7115 22.5008C13.5702 22.5505 13.7964 22.5505 15.9539 22.5505C18.13 22.5505 18.3553 22.5398 19.1954 22.5008C19.7014 22.4946 20.2026 22.4013 20.6769 22.2249C21.3728 21.9547 21.9232 21.4046 22.1938 20.7088C22.3707 20.2291 22.464 19.7226 22.4697 19.2114H22.4795C22.5176 18.3633 22.5176 18.1371 22.5176 15.9698C22.5176 13.8026 22.5079 13.5746 22.4697 12.7274C22.4618 12.2222 22.3685 11.7219 22.1938 11.2477C21.9238 10.551 21.3733 9.99982 20.6769 9.72899C20.2027 9.55222 19.7014 9.45888 19.1954 9.45309C18.3375 9.4043 18.1131 9.4043 15.9539 9.4043ZM15.984 20.0816C14.3251 20.0827 12.8289 19.0843 12.1933 17.552C11.5576 16.0197 11.9077 14.2553 13.0802 13.0818C14.2527 11.9083 16.0167 11.5567 17.5496 12.191C19.0824 12.8254 20.0821 14.3207 20.0825 15.9796C20.0801 18.2427 18.2471 20.0772 15.984 20.0816ZM15.984 13.3165C14.5142 13.3165 13.3227 14.508 13.3227 15.9778C13.3227 17.4476 14.5142 18.6392 15.984 18.6392C17.4539 18.6392 18.6454 17.4476 18.6454 15.9778C18.642 14.5094 17.4524 13.3199 15.984 13.3165ZM20.2422 12.684C19.7147 12.682 19.2884 12.2533 19.2894 11.7259C19.2904 11.1984 19.7183 10.7714 20.2457 10.7714C20.7732 10.7714 21.2011 11.1984 21.202 11.7259C21.2023 11.9804 21.1012 12.2245 20.9211 12.4042C20.7409 12.584 20.4967 12.6847 20.2422 12.684Z" fill="#191F25"/>
</svg>
