<svg width="32" height="32" viewBox="0 0 32 32" fill="none" xmlns="http://www.w3.org/2000/svg">
<path d="M17.7778 32H10.6667V10.6667H17.7778V14.2222C19.2936 12.2938 21.5922 11.1441 24.0444 11.088C28.4544 11.1125 32.0128 14.7011 32 19.1111V32H24.8889V20C24.6045 18.0136 22.9009 16.5397 20.8942 16.544C20.0165 16.5717 19.188 16.956 18.5999 17.6082C18.0118 18.2604 17.7149 19.1241 17.7778 20V32ZM7.11111 32H0V10.6667H7.11111V32ZM3.55556 7.11111C1.59188 7.11111 0 5.51923 0 3.55556C0 1.59188 1.59188 0 3.55556 0C5.51923 0 7.11111 1.59188 7.11111 3.55556C7.11111 4.49855 6.73651 5.40292 6.06971 6.06971C5.40292 6.73651 4.49855 7.11111 3.55556 7.11111Z" fill="#ffffff"/>
</svg>
