<svg width="32" height="32" viewBox="0 0 32 32" fill="none" xmlns="http://www.w3.org/2000/svg">
<circle cx="16" cy="16" r="16" fill="white"/>
<path d="M16.8889 24H13.3333V13.3333H16.8889V15.1111C17.6468 14.1469 18.7961 13.5721 20.0222 13.544C22.2272 13.5562 24.0064 15.3506 24 17.5556V24H20.4444V18C20.3023 17.0068 19.4505 16.2698 18.4471 16.272C18.0082 16.2859 17.594 16.478 17.2999 16.8041C17.0059 17.1302 16.8575 17.562 16.8889 18V24ZM11.5556 24H8V13.3333H11.5556V24ZM9.77778 11.5556C8.79594 11.5556 8 10.7596 8 9.77778C8 8.79594 8.79594 8 9.77778 8C10.7596 8 11.5556 8.79594 11.5556 9.77778C11.5556 10.2493 11.3683 10.7015 11.0349 11.0349C10.7015 11.3683 10.2493 11.5556 9.77778 11.5556Z" fill="#191F25"/>
</svg>
