<svg width="40" height="32" viewBox="0 0 40 32" fill="none" xmlns="http://www.w3.org/2000/svg">
<path d="M34.7543 5.04573C36.4426 4.03645 37.7058 2.44722 38.3081 0.574781C36.7217 1.51606 34.9861 2.17912 33.1761 2.53529C30.6668 -0.119162 26.691 -0.765135 23.4704 0.958326C20.2497 2.68179 18.5815 6.34801 19.3979 9.9084C12.8998 9.58216 6.84572 6.51266 2.74208 1.4637C0.60047 5.15763 1.69488 9.87974 5.2431 12.255C3.96002 12.2137 2.70541 11.8663 1.58385 11.2418C1.58385 11.2757 1.58385 11.3096 1.58385 11.3435C1.58459 15.1913 4.2965 18.5058 8.06804 19.2684C6.87792 19.5922 5.62956 19.6398 4.41821 19.4077C5.47888 22.6984 8.51165 24.9527 11.9683 25.02C9.10542 27.267 5.5698 28.4855 1.93038 28.4796C1.28529 28.4805 0.640717 28.4434 0 28.3685C3.69576 30.7434 7.99717 32.0039 12.3902 31.9995C18.502 32.0414 24.3756 29.632 28.6972 25.31C33.0187 20.9881 35.4277 15.1143 35.3853 9.00253C35.3853 8.65224 35.3771 8.30383 35.3608 7.9573C36.9436 6.81339 38.3097 5.3963 39.3948 3.77262C37.9202 4.42624 36.356 4.85537 34.7543 5.04573Z" fill="#ffffff"/>
</svg>
