<svg width="32" height="32" viewBox="0 0 32 32" fill="none" xmlns="http://www.w3.org/2000/svg">
<circle cx="16" cy="16" r="16" fill="white"/>
<path d="M23.3772 10.5229C24.2213 10.0182 24.8529 9.22361 25.1541 8.28739C24.3609 8.75803 23.493 9.08956 22.5881 9.26765C21.3334 7.94042 19.3455 7.61743 17.7352 8.47916C16.1249 9.34089 15.2908 11.174 15.699 12.9542C12.4499 12.7911 9.42286 11.2563 7.37104 8.73185C6.30023 10.5788 6.84744 12.9399 8.62155 14.1275C7.98001 14.1069 7.3527 13.9332 6.79193 13.6209C6.79193 13.6378 6.79193 13.6548 6.79193 13.6717C6.7923 15.5957 8.14825 17.2529 10.034 17.6342C9.43896 17.7961 8.81478 17.8199 8.20911 17.7039C8.73944 19.3492 10.2558 20.4764 11.9842 20.51C10.5527 21.6335 8.7849 22.2428 6.96519 22.2398C6.64265 22.2403 6.32036 22.2217 6 22.1842C7.84788 23.3717 9.99859 24.002 12.1951 23.9997C15.251 24.0207 18.1878 22.816 20.3486 20.655C22.5094 18.494 23.7139 15.5571 23.6926 12.5013C23.6926 12.3261 23.6885 12.1519 23.6804 11.9787C24.4718 11.4067 25.1548 10.6982 25.6974 9.88631C24.9601 10.2131 24.178 10.4277 23.3772 10.5229Z" fill="#191F25"/>
</svg>
